<svg xmlns="http://www.w3.org/2000/svg" viewBox="0 0 960 817"><defs><linearGradient id="a" x1="3.494%" x2="107.905%" y1="50%" y2="50%"><stop offset="0%" stop-color="#1B75BA"/><stop offset="89.11%" stop-color="#26A7DF" stop-opacity="0"/></linearGradient><linearGradient id="b" x1="0%" x2="100%" y1="50%" y2="50%"><stop offset="6.07%" stop-color="#26A7DF"/><stop offset="99.84%" stop-color="#28AAE1" stop-opacity="0"/></linearGradient><linearGradient id="c" x1="0%" x2="100%" y1="50%" y2="50%"><stop offset="6.07%" stop-color="#26A7DF"/><stop offset="99.84%" stop-color="#28AAE1" stop-opacity="0"/></linearGradient><linearGradient id="d" x1=".001%" x2="100.001%" y1="49.998%" y2="49.998%"><stop offset="6.07%" stop-color="#26A7DF"/><stop offset="99.84%" stop-color="#28AAE1" stop-opacity="0"/></linearGradient><linearGradient id="e" x1="0%" x2="100%" y1="50%" y2="50%"><stop offset="6.07%" stop-color="#26A7DF"/><stop offset="99.84%" stop-color="#26A7DF" stop-opacity="0"/></linearGradient><linearGradient id="f" x1="0%" x2="100%" y1="50%" y2="50%"><stop offset="6.07%" stop-color="#26A7DF"/><stop offset="99.84%" stop-color="#28AAE1" stop-opacity="0"/></linearGradient><linearGradient id="g" x1="0%" x2="99.999%" y1="49.999%" y2="49.999%"><stop offset="6.07%" stop-color="#26A7DF"/><stop offset="99.84%" stop-color="#28AAE1" stop-opacity="0"/></linearGradient><linearGradient id="h" x1=".001%" x2="100%" y1="50%" y2="50%"><stop offset="6.07%" stop-color="#26A7DF"/><stop offset="99.84%" stop-color="#28AAE1" stop-opacity="0"/></linearGradient><linearGradient id="i" x1="0%" x2="99.999%" y1="49.999%" y2="49.999%"><stop offset="6.07%" stop-color="#26A7DF"/><stop offset="99.84%" stop-color="#28AAE1" stop-opacity="0"/></linearGradient><linearGradient id="j" x1=".001%" x2="100%" y1="50%" y2="50%"><stop offset="6.07%" stop-color="#26A7DF"/><stop offset="99.84%" stop-color="#28AAE1" stop-opacity="0"/></linearGradient><linearGradient id="k" x1="0%" x2="99.999%" y1="49.999%" y2="49.999%"><stop offset="6.07%" stop-color="#26A7DF"/><stop offset="99.84%" stop-color="#28AAE1" stop-opacity="0"/></linearGradient><linearGradient id="l" x1=".001%" x2="100%" y1="49.999%" y2="49.999%"><stop offset="6.07%" stop-color="#26A7DF"/><stop offset="99.84%" stop-color="#28AAE1" stop-opacity="0"/></linearGradient><linearGradient id="m" x1="0%" x2="100%" y1="50%" y2="50%"><stop offset="6.07%" stop-color="#26A7DF"/><stop offset="99.84%" stop-color="#26A7DF" stop-opacity="0"/></linearGradient><linearGradient id="n" x1=".003%" x2="100.002%" y1="50.001%" y2="50.001%"><stop offset="11.16%" stop-color="#204496"/><stop offset="99.84%" stop-color="#204496" stop-opacity="0"/></linearGradient><linearGradient id="o" x1="-.001%" x2="99.999%" y1="50%" y2="50%"><stop offset="11.16%" stop-color="#204496"/><stop offset="99.84%" stop-color="#204496" stop-opacity="0"/></linearGradient><linearGradient id="p" x1=".001%" x2="99.999%" y1="50%" y2="50%"><stop offset="11.16%" stop-color="#204496"/><stop offset="99.84%" stop-color="#204496" stop-opacity="0"/></linearGradient><linearGradient id="q" x1="-.003%" x2="99.999%" y1="50%" y2="50%"><stop offset="11.16%" stop-color="#204496"/><stop offset="99.84%" stop-color="#204496" stop-opacity="0"/></linearGradient><linearGradient id="r" x1="0%" x2="99.999%" y1="50%" y2="50%"><stop offset="6.07%" stop-color="#26A7DF"/><stop offset="99.84%" stop-color="#28AAE1" stop-opacity="0"/></linearGradient><linearGradient id="s" x1="0%" x2="100%" y1="50%" y2="50%"><stop offset="6.07%" stop-color="#26A7DF"/><stop offset="99.84%" stop-color="#26A7DF" stop-opacity="0"/></linearGradient><linearGradient id="t" x1="0%" x2="100%" y1="50%" y2="50%"><stop offset="0%" stop-color="#39AEE1"/><stop offset="100%" stop-color="#2A2E6C"/></linearGradient></defs><g fill="none"><g fill="#E1F3FC" opacity=".46" transform="translate(0 124)"><path d="M300.176 87.586 90.24 208.474c-7.957 4.582-17.891-1.161-17.891-10.343v-64.982c0-4.269 2.28-8.213 5.979-10.343L288.264 1.918c7.957-4.582 17.891 1.161 17.891 10.343v64.982a11.931 11.931 0 0 1-5.979 10.343ZM228.07 245.073 18.134 365.961C10.177 370.543.243 364.8.243 355.618v-64.982c0-4.269 2.28-8.213 5.979-10.343l209.936-120.888c7.957-4.582 17.891 1.161 17.891 10.343v64.982c0 4.269-2.28 8.213-5.979 10.343ZM376.936 273.581 167 394.468c-7.957 4.582-17.891-1.161-17.891-10.343v-64.982c0-4.269 2.28-8.213 5.979-10.343l209.936-120.888c7.957-4.582 17.891 1.161 17.891 10.343v64.982c0 4.27-2.28 8.213-5.979 10.344Z"/><ellipse cx="295.623" cy="463.527" rx="112.972" ry="41.659" transform="rotate(-.074 295.623 463.527)"/><ellipse cx="652.911" cy="640.205" rx="112.972" ry="41.659" transform="rotate(-.074 652.91 640.205)"/></g><path fill="url(#a)" d="M669.154 93.385 70.818.695A36.302 36.302 0 0 0 45.52 6.039L16.877 23.297l13.674 1.92a36.526 36.526 0 0 0-1.88 11.598V323.02c0 17.648 12.609 32.775 29.969 35.954L656.666 468.46l-1.105 11.531 24.77-14.949c11.623-6.026 19.778-18.151 19.778-32.479V129.505c.001-18.026-13.141-33.36-30.955-36.12Z" transform="translate(266 104)"/><path fill="#CCE8F8" d="M900.975 587.575c-2.063 0-4.152-.191-6.208-.567L296.431 477.465c-16.177-2.962-27.919-17.048-27.919-33.494V157.766c0-18.78 15.243-34.06 33.978-34.06 1.754 0 3.533.138 5.286.41l598.336 92.69c16.71 2.588 28.839 16.74 28.839 33.649v303.057c-.001 18.783-15.242 34.063-33.976 34.063Z"/><path fill="#FFF" d="M302.494 126.207c1.624 0 3.272.128 4.899.38l598.336 92.69a31.572 31.572 0 0 1 19.127 10.648 31.572 31.572 0 0 1 7.594 20.531v303.057c0 17.403-14.12 31.562-31.475 31.562-1.913 0-3.85-.177-5.758-.526L296.881 475.006c-14.99-2.744-25.869-15.796-25.869-31.035V157.766c0-17.4 14.121-31.557 31.48-31.559h.002m-.004-5c-19.781.002-36.478 16.075-36.478 36.559v286.205c0 17.648 12.609 32.775 29.969 35.953l598.336 109.542c2.244.411 4.469.608 6.659.608 19.717 0 36.475-16.021 36.475-36.562V250.456c0-18.026-13.142-33.361-30.956-36.12l-598.336-92.69a36.994 36.994 0 0 0-5.669-.439Z"/><path fill="#3B7EBD" d="M847.43 342.92v129.96l-132-24.32c-8.92-1.65-15.39-9.42-15.39-18.49V304.26l131.43 20.08c9.18 1.41 15.96 9.3 15.96 18.58Z"/><path fill="url(#b)" d="M180.43 40.92V182.7c0 11.75-10.65 20.61-22.21 18.49L15.68 174.92A18.783 18.783 0 0 1 .29 156.44V19.14C.29 7.63 10.54-1.18 21.92.56l11.12 1.7 131.43 20.08c9.18 1.41 15.96 9.3 15.96 18.58Z" transform="translate(667 302)"/><path fill="url(#c)" d="M137.924 68.648 135.853 56.9c-.713-4.042-4.567-7.318-8.608-7.318l-2.813.968c-3.06 0-4.327-2.882-5.919-5.743a61.886 61.886 0 0 0-1.627-2.752c-1.752-2.797-1.773-6.075.013-8.244l.602-.731c2.354-2.858 1.537-7.491-1.825-10.349l-9.772-8.307c-3.362-2.858-7.995-2.858-10.349 0l-.602.731c-1.786 2.169-4.966 2.726-7.986 1.467a59.76 59.76 0 0 0-2.953-1.142c-3.052-1.088-5.444-3.799-5.983-6.859l-.182-1.031C77.136 3.548 73.282.272 69.241.272H57.492c-4.042 0-6.74 3.276-6.027 7.318l.182 1.031c.539 3.06-.897 5.77-3.564 6.859a41.26 41.26 0 0 0-2.55 1.142c-2.575 1.259-5.951.703-8.503-1.466l-.86-.731c-3.362-2.858-7.995-2.858-10.349 0L22.4 18.579l-3.421 4.154c-2.354 2.858-1.537 7.491 1.825 10.349l.86.731c2.551 2.169 3.686 5.447 2.92 8.244a43.247 43.247 0 0 0-.656 2.752c-.584 2.86-2.957 4.774-6.017 4.774H16.88c-4.042 0-6.74 3.276-6.028 7.318l2.071 11.748c.713 4.042 4.567 7.318 8.608 7.318h1.031c3.06 0 6.108 1.914 7.701 4.774a61.32 61.32 0 0 0 1.627 2.752c1.752 2.797 1.773 6.075-.013 8.244l-.602.731c-2.354 2.858-1.537 7.491 1.825 10.349l4.886 4.154 4.886 4.154c3.362 2.858 7.995 2.858 10.349 0l.602-.731c1.787-2.169 4.966-2.725 7.985-1.467.975.406 1.959.787 2.952 1.141 3.052 1.088 5.444 3.799 5.984 6.859l.182 1.032c.713 4.042 4.567 7.318 8.608 7.318h11.749c4.042 0 6.74-3.276 6.027-7.318l-.182-1.032c-.54-3.06.897-5.771 3.565-6.859a40.995 40.995 0 0 0 2.55-1.142c2.575-1.259 5.951-.702 8.503 1.467l.859.731c3.362 2.858 7.995 2.858 10.349 0l6.842-8.307c2.354-2.858 1.537-7.491-1.825-10.349l-.86-.731c-2.551-2.169-3.686-5.447-2.92-8.244.247-.904.466-1.821.656-2.752.584-2.86 2.957-4.775 6.017-4.775h1.031c4.043 0 6.742-3.277 6.029-7.318Zm-38.973-.852c-.106 2.958-.79 5.718-1.959 8.17a19.014 19.014 0 0 1-2.48 3.916 18.864 18.864 0 0 1-3.356 3.17c-2.171 1.602-4.724 2.772-7.572 3.399-1.56.343-3.206.528-4.928.528-1.721 0-3.432-.184-5.114-.528-3.069-.627-6.035-1.798-8.771-3.399a31.6 31.6 0 0 1-4.474-3.17 31.67 31.67 0 0 1-3.861-3.916c-2.034-2.452-3.692-5.212-4.84-8.169a26.698 26.698 0 0 1-1.413-5.022 23.924 23.924 0 0 1-.358-5.022c.105-2.959.789-5.717 1.959-8.17a18.972 18.972 0 0 1 2.48-3.916 18.8 18.8 0 0 1 3.356-3.171c2.171-1.602 4.723-2.772 7.572-3.399a22.855 22.855 0 0 1 4.928-.528c1.722 0 3.433.185 5.115.528 3.068.627 6.034 1.798 8.769 3.399a31.447 31.447 0 0 1 4.474 3.171 31.811 31.811 0 0 1 3.861 3.916c2.035 2.454 3.691 5.212 4.841 8.17a26.728 26.728 0 0 1 1.412 5.022c.304 1.721.417 3.4.359 5.021Z" transform="translate(675 327)"/><path fill="#CCE8F8" d="M744.271 464.421c-3.572 0-6.992-2.912-7.624-6.492l-.182-1.031c-.601-3.41-3.203-6.404-6.632-7.627a59.925 59.925 0 0 1-2.903-1.122 9.283 9.283 0 0 0-3.58-.74c-2.262 0-4.237.885-5.562 2.493l-.603.731c-.945 1.147-2.374 1.778-4.024 1.779-1.718 0-3.46-.677-4.905-1.905l-9.772-8.307c-2.941-2.502-3.704-6.518-1.699-8.952l.601-.73c2.065-2.506 2.101-6.2.09-9.411a60.813 60.813 0 0 1-1.602-2.708c-1.788-3.212-5.153-5.288-8.574-5.288h-1.031c-3.572 0-6.992-2.912-7.624-6.492l-2.071-11.748c-.296-1.679.075-3.241 1.046-4.397.944-1.126 2.364-1.747 3.997-1.747h1.031c3.504 0 6.315-2.24 6.996-5.574.187-.91.402-1.814.642-2.688.88-3.213-.391-6.852-3.237-9.271l-.859-.73c-2.942-2.502-3.705-6.518-1.7-8.952l6.843-8.308c.945-1.147 2.374-1.779 4.024-1.779 1.718 0 3.46.677 4.905 1.905l.859.731c1.797 1.527 3.994 2.369 6.188 2.368a7.666 7.666 0 0 0 3.401-.765c.813-.398 1.65-.772 2.488-1.114 3.111-1.269 4.787-4.467 4.171-7.958l-.182-1.031c-.296-1.68.075-3.242 1.046-4.398.944-1.126 2.364-1.747 3.997-1.747h11.749c3.572 0 6.992 2.912 7.623 6.491l.183 1.032c.601 3.41 3.203 6.404 6.631 7.626.966.344 1.942.722 2.904 1.123a9.267 9.267 0 0 0 3.581.741c2.262 0 4.236-.886 5.562-2.494l.603-.731c.944-1.147 2.373-1.779 4.024-1.779 1.717 0 3.459.677 4.904 1.905l9.772 8.307c2.942 2.502 3.705 6.518 1.7 8.952l-.602.73c-2.064 2.506-2.1 6.201-.089 9.411a60.823 60.823 0 0 1 1.6 2.707c1.789 3.213 5.155 5.289 8.575 5.289h1.031c3.572 0 6.992 2.912 7.624 6.492l2.071 11.748c.296 1.679-.075 3.241-1.046 4.397-.944 1.126-2.364 1.747-3.997 1.747h-1.031c-3.505 0-6.316 2.24-6.997 5.574a41.586 41.586 0 0 1-.642 2.689c-.879 3.211.392 6.85 3.238 9.269l.859.73c2.942 2.502 3.705 6.519 1.7 8.952l-6.842 8.307c-.945 1.147-2.375 1.779-4.025 1.779-1.718 0-3.459-.677-4.904-1.905l-.86-.731c-1.796-1.527-3.993-2.368-6.188-2.368a7.667 7.667 0 0 0-3.4.765c-.811.396-1.647.771-2.488 1.114-3.112 1.27-4.788 4.468-4.172 7.959l.182 1.031c.296 1.68-.075 3.241-1.046 4.398-.944 1.126-2.364 1.746-3.997 1.746h-11.749v.002Zm-9.415-86.706c-1.75 0-3.479.186-5.143.551-2.94.647-5.615 1.849-7.951 3.571a19.854 19.854 0 0 0-3.534 3.34 19.956 19.956 0 0 0-2.61 4.121c-1.256 2.635-1.947 5.517-2.056 8.565a24.907 24.907 0 0 0 .373 5.231c.308 1.747.801 3.5 1.465 5.211 1.17 3.012 2.854 5.854 5.003 8.445a32.64 32.64 0 0 0 3.983 4.04 32.652 32.652 0 0 0 4.615 3.271c2.896 1.695 5.949 2.877 9.076 3.517 1.779.363 3.567.548 5.314.548 1.753 0 3.483-.186 5.143-.551 2.941-.647 5.617-1.849 7.951-3.571a19.91 19.91 0 0 0 3.534-3.338 20.1 20.1 0 0 0 2.61-4.123c1.256-2.631 1.947-5.513 2.056-8.565a24.903 24.903 0 0 0-.373-5.23 27.85 27.85 0 0 0-1.464-5.209c-1.172-3.014-2.854-5.856-5.004-8.447a32.773 32.773 0 0 0-3.982-4.039 32.46 32.46 0 0 0-4.617-3.272c-2.894-1.694-5.946-2.877-9.074-3.516a26.461 26.461 0 0 0-5.315-.55Z"/><path fill="#FFF" d="M733.978 342.419c3.057 0 6.097 2.594 6.639 5.665l.182 1.032c.663 3.759 3.521 7.054 7.281 8.395.951.339 1.912.711 2.855 1.104a10.26 10.26 0 0 0 3.965.818c2.529 0 4.838-1.042 6.334-2.859l.602-.731c.752-.913 1.907-1.415 3.253-1.415 1.481 0 2.993.592 4.257 1.667l9.772 8.307c2.529 2.15 3.236 5.539 1.577 7.554l-.602.731c-2.343 2.844-2.407 6.996-.164 10.577a59.376 59.376 0 0 1 1.574 2.663c1.962 3.524 5.671 5.802 9.448 5.802h1.031c3.057 0 6.097 2.594 6.639 5.665l2.071 11.748c.244 1.384-.05 2.656-.826 3.581-.752.896-1.899 1.389-3.231 1.389h-1.031c-3.993 0-7.198 2.562-7.977 6.375-.18.88-.39 1.763-.626 2.624-.981 3.585.414 7.626 3.554 10.296l.86.731c2.529 2.15 3.236 5.539 1.576 7.554l-6.842 8.307c-.752.912-1.907 1.415-3.253 1.415-1.481 0-2.993-.592-4.257-1.667l-.859-.731c-1.977-1.681-4.405-2.606-6.837-2.606a8.663 8.663 0 0 0-3.839.867 39.41 39.41 0 0 1-2.427 1.086c-3.558 1.451-5.479 5.091-4.779 9.058l.182 1.032c.244 1.384-.05 2.656-.826 3.581-.752.896-1.899 1.389-3.231 1.389h-11.749c-3.057 0-6.097-2.594-6.639-5.665l-.182-1.032c-.663-3.759-3.521-7.054-7.282-8.395a59.897 59.897 0 0 1-2.854-1.103c-1.301-.542-2.635-.818-3.965-.818-2.529 0-4.838 1.042-6.334 2.858l-.602.731c-.752.912-1.907 1.415-3.253 1.415-1.48 0-2.992-.592-4.257-1.667l-4.886-4.154-4.886-4.154c-2.529-2.15-3.236-5.538-1.576-7.554l.602-.731c2.343-2.844 2.407-6.996.164-10.577a60.984 60.984 0 0 1-1.575-2.664c-1.962-3.524-5.671-5.801-9.448-5.801h-1.031c-3.057 0-6.097-2.594-6.639-5.665l-2.071-11.748c-.244-1.384.049-2.655.826-3.581.752-.896 1.899-1.389 3.232-1.389h1.031c3.993 0 7.198-2.562 7.977-6.374.18-.88.39-1.763.626-2.624.982-3.585-.413-7.626-3.554-10.296l-.86-.731c-2.529-2.15-3.236-5.539-1.576-7.554l3.421-4.154 3.421-4.154c.752-.912 1.907-1.415 3.253-1.415 1.481 0 2.992.592 4.257 1.667l.86.731c1.977 1.681 4.405 2.606 6.837 2.606a8.664 8.664 0 0 0 3.84-.867c.79-.386 1.607-.752 2.427-1.086 3.558-1.451 5.478-5.091 4.779-9.058l-.182-1.031c-.244-1.384.05-2.656.826-3.581.752-.896 1.899-1.389 3.232-1.389h11.745m9.414 86.706a24.97 24.97 0 0 0 5.358-.574c3.079-.678 5.881-1.938 8.329-3.744a20.94 20.94 0 0 0 3.713-3.509 21.059 21.059 0 0 0 2.74-4.326c1.314-2.756 2.039-5.77 2.153-8.961a26.095 26.095 0 0 0-.388-5.439 28.813 28.813 0 0 0-1.517-5.398c-1.209-3.114-2.947-6.048-5.165-8.723a33.866 33.866 0 0 0-4.105-4.163 33.587 33.587 0 0 0-4.759-3.373c-2.989-1.75-6.145-2.972-9.38-3.633a27.652 27.652 0 0 0-5.515-.568c-1.823 0-3.625.193-5.358.575-3.078.677-5.88 1.936-8.33 3.743a20.835 20.835 0 0 0-3.712 3.508 21.02 21.02 0 0 0-2.742 4.327c-1.315 2.758-2.039 5.773-2.152 8.96a26.03 26.03 0 0 0 .387 5.44c.319 1.81.83 3.626 1.518 5.399 1.209 3.114 2.947 6.048 5.164 8.721a33.676 33.676 0 0 0 4.107 4.164 33.595 33.595 0 0 0 4.758 3.372c2.989 1.749 6.145 2.972 9.381 3.633 1.847.378 3.702.569 5.515.569m-9.414-88.706h-11.749c-4.042 0-6.74 3.276-6.028 7.318l.182 1.031c.54 3.06-.897 5.77-3.564 6.859-.868.354-1.718.735-2.55 1.141a6.728 6.728 0 0 1-2.962.664c-1.899 0-3.892-.728-5.541-2.13l-.86-.731c-1.681-1.429-3.68-2.143-5.552-2.143-1.873 0-3.62.714-4.797 2.143l-3.421 4.154-3.421 4.154c-2.354 2.858-1.537 7.491 1.825 10.349l.86.731c2.551 2.169 3.686 5.447 2.92 8.244a43.085 43.085 0 0 0-.656 2.752c-.584 2.86-2.957 4.774-6.017 4.774h-1.031c-4.042 0-6.74 3.276-6.028 7.318l2.071 11.748c.713 4.042 4.567 7.318 8.608 7.318h1.031c3.06 0 6.108 1.914 7.701 4.774a61.32 61.32 0 0 0 1.627 2.752c1.752 2.797 1.773 6.075-.013 8.244l-.602.731c-2.354 2.858-1.537 7.491 1.825 10.349l4.886 4.154 4.886 4.154c1.681 1.429 3.68 2.143 5.552 2.143 1.873 0 3.619-.714 4.797-2.143l.602-.731c1.155-1.402 2.891-2.13 4.79-2.13 1.039 0 2.127.218 3.195.663.975.406 1.959.787 2.952 1.141 3.052 1.088 5.444 3.799 5.984 6.859l.182 1.032c.713 4.042 4.567 7.318 8.608 7.318h11.749c4.042 0 6.74-3.276 6.027-7.318l-.182-1.032c-.54-3.06.897-5.771 3.565-6.859a41.583 41.583 0 0 0 2.55-1.141 6.726 6.726 0 0 1 2.961-.663c1.899 0 3.892.728 5.541 2.13l.859.731c1.681 1.429 3.68 2.143 5.553 2.143 1.873 0 3.62-.714 4.796-2.143l6.842-8.307c2.354-2.858 1.537-7.491-1.825-10.349l-.86-.731c-2.551-2.169-3.686-5.447-2.92-8.244.247-.904.466-1.821.656-2.752.584-2.86 2.957-4.775 6.017-4.775h1.031c4.042 0 6.74-3.276 6.027-7.318l-2.071-11.748c-.713-4.042-4.567-7.318-8.608-7.318h-1.031c-3.06 0-6.108-1.914-7.701-4.775a61.287 61.287 0 0 0-1.627-2.751c-1.752-2.797-1.773-6.075.013-8.244l.602-.731c2.354-2.858 1.537-7.491-1.825-10.349l-9.772-8.307c-1.681-1.429-3.68-2.143-5.552-2.143-1.873 0-3.62.714-4.797 2.143l-.602.731c-1.155 1.402-2.891 2.13-4.79 2.13a8.311 8.311 0 0 1-3.195-.664 59.76 59.76 0 0 0-2.953-1.142c-3.052-1.088-5.444-3.799-5.983-6.859l-.182-1.031c-.709-4.042-4.563-7.318-8.605-7.318Zm9.414 86.706c-1.721 0-3.432-.184-5.114-.527-3.069-.627-6.034-1.798-8.771-3.399a31.6 31.6 0 0 1-4.474-3.17 31.67 31.67 0 0 1-3.861-3.916c-2.034-2.452-3.692-5.212-4.84-8.169a26.698 26.698 0 0 1-1.413-5.022 23.991 23.991 0 0 1-.358-5.022c.105-2.959.789-5.717 1.959-8.17a18.972 18.972 0 0 1 2.48-3.916 18.8 18.8 0 0 1 3.356-3.171c2.171-1.602 4.723-2.772 7.572-3.399a22.918 22.918 0 0 1 4.928-.528c1.722 0 3.433.185 5.115.528 3.068.627 6.034 1.798 8.769 3.399a31.447 31.447 0 0 1 4.474 3.171 31.811 31.811 0 0 1 3.861 3.916c2.035 2.453 3.691 5.212 4.841 8.17a26.728 26.728 0 0 1 1.412 5.022c.303 1.721.416 3.401.359 5.021-.106 2.958-.79 5.718-1.959 8.17a19.014 19.014 0 0 1-2.48 3.916 18.864 18.864 0 0 1-3.356 3.17c-2.171 1.602-4.724 2.772-7.572 3.399a22.898 22.898 0 0 1-4.928.527Z"/><path fill="url(#d)" d="m51.265 25.484-.766-4.346c-.264-1.495-1.689-2.707-3.184-2.707l-1.041.358c-1.132 0-1.601-1.066-2.19-2.124a22.655 22.655 0 0 0-.602-1.018c-.648-1.035-.656-2.247.005-3.05l.223-.27c.871-1.057.568-2.771-.675-3.828L39.42 5.426c-1.244-1.057-2.958-1.057-3.828 0l-.223.27c-.661.802-1.837 1.008-2.954.543-.361-.15-.725-.291-1.093-.422-1.129-.403-2.014-1.405-2.213-2.537l-.067-.382C28.778 1.403 27.353.191 25.858.191h-4.346c-1.495 0-2.493 1.212-2.23 2.707l.067.382c.2 1.132-.332 2.135-1.319 2.537-.321.131-.636.272-.943.422-.953.466-2.202.26-3.146-.542l-.318-.27c-1.244-1.057-2.958-1.057-3.828 0L8.529 6.964 7.263 8.501c-.871 1.057-.568 2.771.675 3.828l.318.27c.944.802 1.364 2.015 1.08 3.05-.092.334-.173.674-.243 1.018-.216 1.058-1.094 1.766-2.226 1.766h-.381c-1.495 0-2.493 1.212-2.23 2.707l.766 4.346c.264 1.495 1.689 2.707 3.184 2.707h.381c1.132 0 2.26.708 2.849 1.766.192.344.393.684.602 1.018.648 1.035.656 2.247-.005 3.05l-.223.27c-.871 1.057-.568 2.771.675 3.828l1.807 1.537 1.808 1.537c1.244 1.057 2.958 1.057 3.828 0l.223-.27c.661-.802 1.837-1.008 2.954-.543.361.15.725.291 1.092.422 1.129.403 2.014 1.405 2.214 2.537l.067.382c.264 1.495 1.689 2.707 3.184 2.707h4.346c1.495 0 2.493-1.212 2.23-2.707l-.067-.382c-.2-1.132.332-2.135 1.319-2.537.321-.131.636-.272.943-.422.953-.466 2.202-.26 3.145.543l.318.27c1.244 1.057 2.958 1.057 3.828 0l2.531-3.073c.871-1.057.569-2.771-.675-3.828l-.318-.27c-.944-.802-1.364-2.015-1.08-3.05.092-.334.173-.674.243-1.018.216-1.058 1.094-1.766 2.226-1.766h.381c1.499-.002 2.497-1.214 2.233-2.71Zm-14.417-.315a7.62 7.62 0 0 1-.725 3.022 7.076 7.076 0 0 1-.917 1.449 6.981 6.981 0 0 1-1.242 1.173 7.373 7.373 0 0 1-2.801 1.258 8.468 8.468 0 0 1-1.823.195c-.637 0-1.27-.068-1.892-.195a10.677 10.677 0 0 1-3.245-1.258 11.635 11.635 0 0 1-1.655-1.173c-.517-.44-.995-.926-1.428-1.449a10.967 10.967 0 0 1-1.791-3.022 9.916 9.916 0 0 1-.523-1.858 8.85 8.85 0 0 1-.133-1.858 7.616 7.616 0 0 1 .725-3.022 7.034 7.034 0 0 1 .917-1.449c.362-.44.779-.832 1.241-1.173a7.349 7.349 0 0 1 2.801-1.257 8.468 8.468 0 0 1 1.823-.195c.637 0 1.27.068 1.892.195 1.135.232 2.232.665 3.244 1.257a11.555 11.555 0 0 1 3.083 2.622 10.982 10.982 0 0 1 1.791 3.022c.233.6.41 1.221.522 1.858a8.73 8.73 0 0 1 .136 1.858Z" transform="translate(797 415)"/><path fill="#CCE8F8" d="M822.868 465.796c-1.262 0-2.469-1.029-2.692-2.294l-.067-.382c-.229-1.307-1.227-2.453-2.538-2.921a22.597 22.597 0 0 1-1.067-.413 3.567 3.567 0 0 0-1.374-.284c-.877 0-1.644.345-2.158.97l-.223.271c-.325.394-.818.61-1.389.61-.604 0-1.219-.239-1.729-.674l-3.615-3.073c-1.035-.88-1.311-2.283-.613-3.129l.223-.271c.8-.97.816-2.396.043-3.633a22.115 22.115 0 0 1-.59-.997c-.684-1.228-1.974-2.021-3.285-2.021h-.381c-1.262 0-2.469-1.029-2.692-2.294l-.767-4.346c-.103-.583.024-1.123.358-1.521.324-.387.814-.6 1.379-.6h.382c1.36 0 2.451-.871 2.716-2.167.067-.332.146-.661.235-.984.338-1.238-.147-2.637-1.238-3.563l-.318-.271c-1.035-.88-1.31-2.284-.613-3.13l2.531-3.073c.324-.394.818-.611 1.389-.611.604 0 1.219.239 1.729.674l.318.271c.688.585 1.53.907 2.373.907.471 0 .914-.1 1.316-.296.298-.146.602-.282.913-.409 1.208-.493 1.859-1.733 1.621-3.087l-.067-.381c-.103-.583.024-1.123.358-1.521.324-.387.814-.6 1.379-.6h4.347c1.262 0 2.469 1.029 2.692 2.294l.067.381c.229 1.307 1.226 2.454 2.537 2.921.358.128.715.266 1.068.413.452.188.915.284 1.375.284.876 0 1.643-.345 2.157-.97l.223-.27c.325-.394.818-.611 1.389-.611.604 0 1.219.239 1.729.674l3.615 3.073c1.035.88 1.31 2.284.613 3.129l-.223.271c-.8.97-.816 2.396-.043 3.633.206.327.401.658.59.996.684 1.229 1.974 2.022 3.285 2.022h.381c1.262 0 2.469 1.029 2.692 2.294l.767 4.346c.103.583-.024 1.123-.358 1.521-.324.387-.814.6-1.379.6h-.382c-1.36 0-2.451.871-2.716 2.167-.067.332-.146.661-.235.984-.338 1.237.148 2.636 1.238 3.563l.318.271c1.035.88 1.311 2.283.613 3.129l-2.531 3.073c-.324.394-.817.61-1.389.61-.604 0-1.219-.238-1.729-.673l-.318-.271c-.688-.585-1.53-.907-2.374-.907-.471 0-.913.1-1.314.296-.299.146-.603.282-.913.409-1.21.493-1.861 1.734-1.622 3.087l.067.382c.103.583-.024 1.122-.358 1.521-.324.387-.814.6-1.38.6h-4.346v.001Zm-3.482-32.075c-.656 0-1.307.069-1.931.207a7.82 7.82 0 0 0-2.99 1.343c-.5.369-.947.792-1.331 1.257-.385.468-.715.99-.982 1.553a8.097 8.097 0 0 0-.773 3.22 9.396 9.396 0 0 0 .141 1.962c.114.652.299 1.31.549 1.952a11.427 11.427 0 0 0 1.871 3.16 12.157 12.157 0 0 0 3.217 2.734 11.108 11.108 0 0 0 3.396 1.316c.668.136 1.338.205 1.991.205.656 0 1.307-.069 1.931-.207a7.824 7.824 0 0 0 2.99-1.344 7.458 7.458 0 0 0 1.331-1.257 7.54 7.54 0 0 0 .982-1.552 8.097 8.097 0 0 0 .773-3.22 9.396 9.396 0 0 0-.141-1.962 10.39 10.39 0 0 0-.549-1.952 11.427 11.427 0 0 0-1.871-3.16 12.22 12.22 0 0 0-1.489-1.511 12.23 12.23 0 0 0-1.727-1.224 11.115 11.115 0 0 0-3.397-1.315 10.008 10.008 0 0 0-1.991-.205Z"/><path fill="#FFF" d="M819.061 421.053c1.013 0 2.02.861 2.2 1.881l.067.382c.261 1.481 1.385 2.779 2.862 3.306.351.125.699.26 1.043.404.513.214 1.04.322 1.567.322 1.014 0 1.941-.42 2.544-1.152l.222-.27c.228-.277.584-.429 1.003-.429.479 0 .992.202 1.406.555l3.615 3.073c.814.692 1.066 1.805.551 2.431l-.223.27c-.925 1.123-.957 2.817-.08 4.216.2.32.392.644.576.974.771 1.385 2.232 2.28 3.723 2.28h.381c1.013 0 2.02.861 2.2 1.881l.766 4.346c.077.435-.012.83-.249 1.113-.228.271-.582.421-.996.421h-.381c-1.604 0-2.892 1.031-3.206 2.566a14.89 14.89 0 0 1-.228.954c-.39 1.423.159 3.023 1.397 4.076l.318.27c.814.692 1.066 1.805.551 2.431l-2.531 3.073c-.307.373-.76.429-1.003.429-.486 0-.985-.197-1.406-.555l-.318-.27c-.778-.662-1.736-1.026-2.698-1.026-.547 0-1.063.117-1.535.347-.287.14-.584.273-.882.395-1.432.584-2.207 2.046-1.926 3.637l.067.381c.077.435-.012.83-.249 1.112-.228.271-.582.421-.996.421h-4.346c-1.013 0-2.02-.861-2.2-1.881l-.067-.382c-.261-1.481-1.385-2.779-2.862-3.306-.351-.125-.699-.26-1.043-.403a4.055 4.055 0 0 0-1.567-.322c-1.014 0-1.941.42-2.544 1.152l-.223.27c-.307.373-.76.429-1.003.429-.479 0-.991-.202-1.406-.555l-1.808-1.537-1.807-1.537c-.814-.692-1.066-1.805-.551-2.431l.223-.27c.925-1.122.957-2.817.08-4.216-.2-.32-.392-.644-.576-.974-.771-1.385-2.232-2.28-3.722-2.28h-.381c-1.013 0-2.02-.861-2.2-1.881l-.766-4.346c-.077-.435.012-.83.249-1.113.228-.271.582-.421.996-.421h.381c1.604 0 2.892-1.031 3.206-2.566.066-.321.142-.642.228-.954.39-1.423-.159-3.023-1.397-4.076l-.318-.27c-.814-.692-1.066-1.805-.551-2.431l1.266-1.537 1.266-1.537c.307-.373.76-.429 1.003-.429.486 0 .985.197 1.406.555l.318.271c.778.662 1.736 1.026 2.698 1.026.547 0 1.064-.117 1.535-.347.288-.141.584-.273.882-.395 1.432-.584 2.206-2.046 1.926-3.637l-.067-.382c-.077-.435.012-.83.249-1.113.228-.271.582-.421.996-.421h4.345m3.482 32.078c.694 0 1.379-.074 2.038-.219a8.336 8.336 0 0 0 3.18-1.43 7.973 7.973 0 0 0 1.42-1.342 8.077 8.077 0 0 0 1.048-1.654 8.603 8.603 0 0 0 .822-3.418 9.908 9.908 0 0 0-.147-2.067 10.89 10.89 0 0 0-.575-2.046 11.965 11.965 0 0 0-1.953-3.299 12.628 12.628 0 0 0-3.348-2.846 11.612 11.612 0 0 0-3.549-1.374c-.7-.143-1.404-.216-2.092-.216-.693 0-1.379.074-2.038.219a8.326 8.326 0 0 0-3.18 1.429 7.902 7.902 0 0 0-2.467 2.996 8.597 8.597 0 0 0-.821 3.417c-.024.68.025 1.376.147 2.067.121.686.314 1.375.575 2.046a11.897 11.897 0 0 0 1.953 3.298c.473.571.995 1.1 1.551 1.573.556.472 1.16.9 1.797 1.274a11.618 11.618 0 0 0 3.55 1.374c.697.145 1.401.218 2.089.218m-3.482-33.076h-4.346c-1.495 0-2.493 1.212-2.23 2.707l.067.382c.2 1.132-.332 2.135-1.319 2.537a15.71 15.71 0 0 0-.943.422 2.483 2.483 0 0 1-1.096.245c-.703 0-1.44-.269-2.05-.788l-.318-.27c-.622-.529-1.361-.793-2.054-.793-.693 0-1.339.264-1.774.793l-1.266 1.537-1.266 1.537c-.871 1.057-.568 2.771.675 3.828l.318.27c.944.802 1.364 2.015 1.08 3.05-.092.334-.173.674-.243 1.018-.216 1.058-1.094 1.766-2.226 1.766h-.381c-1.495 0-2.493 1.212-2.23 2.707l.766 4.346c.264 1.495 1.689 2.707 3.184 2.707h.381c1.132 0 2.26.708 2.849 1.766.192.344.393.684.602 1.018.648 1.035.656 2.247-.005 3.05l-.223.27c-.871 1.057-.569 2.771.675 3.828l1.807 1.537 1.808 1.537c.622.529 1.361.793 2.054.793.693 0 1.339-.264 1.774-.793l.223-.27c.427-.518 1.07-.788 1.772-.788.385 0 .787.081 1.182.245.361.15.725.291 1.092.422 1.129.403 2.014 1.405 2.214 2.537l.067.382c.264 1.495 1.689 2.707 3.184 2.707h4.346c1.495 0 2.493-1.212 2.23-2.707l-.067-.382c-.2-1.132.332-2.135 1.319-2.537.321-.131.636-.272.943-.422a2.482 2.482 0 0 1 1.095-.245c.703 0 1.44.269 2.05.788l.318.27c.622.529 1.361.793 2.054.793.693 0 1.339-.264 1.774-.793l2.531-3.073c.871-1.057.569-2.771-.675-3.828l-.318-.27c-.944-.802-1.364-2.015-1.08-3.05.092-.334.173-.674.243-1.018.216-1.058 1.094-1.766 2.226-1.766h.381c1.495 0 2.493-1.212 2.23-2.707l-.766-4.346c-.264-1.495-1.689-2.707-3.184-2.707h-.381c-1.132 0-2.26-.708-2.849-1.766a22.655 22.655 0 0 0-.602-1.018c-.648-1.035-.656-2.247.005-3.05l.223-.27c.871-1.057.569-2.771-.675-3.828l-3.615-3.073c-.622-.529-1.361-.793-2.054-.793-.693 0-1.339.264-1.775.793l-.223.27c-.427.519-1.07.788-1.772.788a3.09 3.09 0 0 1-1.182-.245c-.361-.15-.725-.291-1.092-.422-1.129-.403-2.014-1.405-2.213-2.537l-.067-.382c-.262-1.497-1.687-2.709-3.182-2.709Zm3.482 32.076c-.637 0-1.27-.068-1.892-.195a10.677 10.677 0 0 1-3.245-1.258 11.635 11.635 0 0 1-1.655-1.173c-.517-.44-.995-.926-1.428-1.449a10.94 10.94 0 0 1-1.79-3.022 9.916 9.916 0 0 1-.523-1.858 8.847 8.847 0 0 1-.132-1.858 7.616 7.616 0 0 1 .725-3.022 7.034 7.034 0 0 1 .917-1.449c.362-.44.779-.832 1.241-1.173a7.349 7.349 0 0 1 2.801-1.257 8.468 8.468 0 0 1 1.823-.195c.637 0 1.27.068 1.892.195 1.135.232 2.232.665 3.244 1.257a11.555 11.555 0 0 1 3.083 2.622 10.982 10.982 0 0 1 1.791 3.022c.233.6.41 1.221.522 1.858.112.637.154 1.258.133 1.857a7.62 7.62 0 0 1-.725 3.022 7.034 7.034 0 0 1-.917 1.449 6.981 6.981 0 0 1-1.242 1.173 7.373 7.373 0 0 1-2.801 1.258 8.389 8.389 0 0 1-1.822.196Z"/><path fill="url(#e)" d="M161.52 211.549v34.79c0 3.46-1.6 6.48-4.05 8.44v53.41L47.6 287.219c-9.8-1.87-16.89-10.44-16.89-20.42V1.289l109.15 16.92c10.13 1.57 17.61 10.29 17.61 20.55v164.35c2.49 2 4.05 5.07 4.05 8.44Z" transform="translate(356.58 156.111)"/><path fill="url(#f)" d="M157.47 38.759v277.57c0 13.05-11.88 22.87-24.7 20.43L16.9 314.639c-9.8-1.87-16.9-10.45-16.9-20.43v-273.4C0 8.049 11.38-1.701 23.98.249l6.73 1.04 109.15 16.92c10.13 1.57 17.61 10.29 17.61 20.55Z" transform="translate(356.58 156.111)"/><path fill="#2F5F96" d="m414.471 188.191 27.952 5.38a10.82 10.82 0 0 1 8.775 10.625v34.797c0 6.763-6.135 11.869-12.786 10.64l-29.207-5.397a10.82 10.82 0 0 1-8.847-11.03l1.255-34.78c.24-6.634 6.34-11.49 12.858-10.235Z"/><path fill="url(#g)" stroke="#FFF" stroke-width="2" d="m15.061 3.735 27.952 5.38a10.82 10.82 0 0 1 8.775 10.625v34.797c0 6.763-6.135 11.869-12.786 10.64L9.795 59.78A10.82 10.82 0 0 1 .948 48.75l1.255-34.78c.239-6.634 6.34-11.49 12.858-10.235Z" transform="translate(395 187)"/><path fill="#2F5F96" d="M514.05 209.03v51.67c-1.09.88-2.36 1.54-3.72 1.94-1.57.47-3.28.58-5.02.26l-29.21-5.39c-5.27-.98-9.04-5.67-8.84-11.03l1.25-34.78c.11-2.97 1.39-5.59 3.36-7.45 2.43-2.31 5.9-3.48 9.5-2.79l27.95 5.38c1.78.34 3.39 1.11 4.73 2.19Z"/><path fill="url(#h)" d="m14.959 3.006 27.952 5.38a10.82 10.82 0 0 1 8.775 10.625v34.797c0 6.763-6.135 11.869-12.786 10.64L9.693 59.051a10.82 10.82 0 0 1-8.847-11.03l1.255-34.78C2.34 6.608 8.441 1.752 14.959 3.006Z" transform="translate(462 201)"/><path fill="#2F5F96" d="m414.471 263.285 27.952 5.38a10.82 10.82 0 0 1 8.775 10.625v34.797c0 6.763-6.135 11.869-12.786 10.64l-29.207-5.397a10.82 10.82 0 0 1-8.847-11.03l1.255-34.78c.24-6.634 6.34-11.49 12.858-10.235Z"/><path fill="url(#i)" d="m15.061 2.829 27.952 5.38a10.82 10.82 0 0 1 8.775 10.625v34.797c0 6.763-6.135 11.869-12.786 10.64L9.795 58.874a10.82 10.82 0 0 1-8.847-11.03l1.255-34.78c.239-6.634 6.34-11.49 12.858-10.235Z" transform="translate(395 263)"/><path fill="#2F5F96" d="M514.05 284.13v51.66c-1.09.88-2.36 1.55-3.73 1.95-1.56.47-3.27.58-5.01.26l-29.21-5.4c-5.27-.97-9.04-5.67-8.84-11.03l1.25-34.78c.11-2.97 1.39-5.58 3.36-7.45 2.43-2.31 5.9-3.48 9.5-2.78l27.95 5.38c1.78.34 3.39 1.11 4.73 2.19Z"/><path fill="url(#j)" d="m14.959 3.1 27.952 5.38a10.82 10.82 0 0 1 8.775 10.625v34.797c0 6.763-6.135 11.869-12.786 10.64L9.693 59.145a10.82 10.82 0 0 1-8.847-11.03l1.255-34.78C2.34 6.702 8.441 1.846 14.959 3.1Z" transform="translate(462 276)"/><path fill="#2F5F96" d="m414.471 338.379 27.952 5.38a10.82 10.82 0 0 1 8.775 10.625v34.797c0 6.763-6.135 11.869-12.786 10.64l-29.207-5.397a10.82 10.82 0 0 1-8.847-11.03l1.255-34.78c.24-6.633 6.34-11.489 12.858-10.235Z"/><path fill="url(#k)" d="m15.061 2.923 27.952 5.38a10.82 10.82 0 0 1 8.775 10.625v34.797c0 6.763-6.135 11.869-12.786 10.64L9.795 58.968a10.82 10.82 0 0 1-8.847-11.03l1.255-34.78c.239-6.633 6.34-11.489 12.858-10.235Z" transform="translate(395 338)"/><path fill="#2F5F96" d="M518.1 367.66v34.79c0 3.46-1.6 6.48-4.05 8.44-1.09.88-2.36 1.54-3.72 1.94-1.57.47-3.28.58-5.02.26l-29.21-5.39c-5.27-.98-9.04-5.67-8.84-11.03l1.25-34.78c.11-2.98 1.39-5.6 3.37-7.46 2.43-2.3 5.9-3.47 9.49-2.78l27.95 5.38c1.78.34 3.39 1.11 4.73 2.19 2.49 2 4.05 5.07 4.05 8.44Z"/><path fill="url(#l)" d="m14.959 3.195 27.952 5.38A10.82 10.82 0 0 1 51.686 19.2v34.797c0 6.763-6.135 11.869-12.786 10.64L9.693 59.24A10.82 10.82 0 0 1 .846 48.21l1.255-34.78C2.34 6.796 8.441 1.94 14.959 3.195Z" transform="translate(462 351)"/><g transform="translate(523 201)"><path fill="url(#m)" d="M374.43 73.9c-2.15 5.7-4.87 11.76-7.33 16.97-3.8 8.02-12.45 12.56-21.2 11.11L16.45 47.63C8.08 46.25 3.79 41.66 1.69 36.45.29 32.99-.01 29.34.61 25.87c5 2.69 13.88 4.34 29.47 2.85 1.54-.15 3.04-.3 4.51-.46 39-4.25 54.82-12.35 96.05 10.17 42.79 23.37 67.17 33.72 127.3 21.05 60.14-12.66 79.73 28.08 98.58 17.96 9.54-5.12 14.26-11.75 16.61-17.05 2.47 3.99 3.02 8.98 1.3 13.51Z"/><path fill="url(#m)" d="M374.43 73.9c-2.15 5.7-4.87 11.76-7.33 16.97-3.8 8.02-12.45 12.56-21.2 11.11L16.45 47.63C8.08 46.25 3.79 41.66 1.69 36.45.29 32.99-.01 29.34.61 25.87c1.02-5.76 4.59-11.03 9.96-14.12l13.66-7.89c.38-.22.78-.42 1.19-.57C34.05-.08 40.63-.07 45.23.95c3.6.79 4.27 5.63 1.04 7.39-6.54 3.54-4.54 4.33-4.54 4.33S315.45 57.01 336.3 59.62c10.95 1.37 14.36-2.01 15.12-5.52.8-3.65 4.86-5.55 8.27-4.03 4.1 1.83 7.66 4.39 10.5 6.86 1.17 1.02 2.15 2.19 2.94 3.46 2.47 3.99 3.02 8.98 1.3 13.51Z"/><circle cx="274.6" cy="79.606" r="5.175" fill="#FFF"/><circle cx="234.357" cy="62.612" r="5.175" fill="#FFF"/><circle cx="98.612" cy="54.328" r="5.175" fill="#FFF"/><circle cx="28.407" cy="20.231" r="5.175" fill="#FFF"/><ellipse cx="38.691" cy="39.337" fill="#FFF" rx="2.587" ry="2.589" transform="rotate(-76.332 38.691 39.337)"/><ellipse cx="78.737" cy="28.177" fill="#FFF" rx="2.587" ry="2.589" transform="rotate(-76.332 78.737 28.177)"/><ellipse cx="127.607" cy="58.296" fill="#FFF" rx="2.587" ry="2.589" transform="rotate(-76.332 127.607 58.296)"/><ellipse cx="178.28" cy="46.008" fill="#FFF" rx="2.587" ry="2.589" transform="rotate(-76.332 178.28 46.008)"/><ellipse cx="179.332" cy="52.639" fill="#FFF" rx="2.587" ry="2.589" transform="rotate(-76.332 179.332 52.639)"/><ellipse cx="293.173" cy="65.861" fill="#FFF" rx="2.587" ry="2.589" transform="rotate(-76.332 293.173 65.86)"/><ellipse cx="346.483" cy="95.947" fill="#FFF" rx="2.587" ry="2.589" transform="rotate(-76.332 346.483 95.947)"/><ellipse cx="359.178" cy="56.205" fill="#FFF" rx="2.587" ry="2.589" transform="rotate(-76.332 359.178 56.205)"/><ellipse cx="357.417" cy="74.407" fill="#FFF" rx="2.587" ry="2.589" transform="rotate(-76.332 357.417 74.407)"/></g><path fill="#FCDFD8" d="M388.58 241.211s1.484-12.363 3.927-13.992c2.443-1.629 15.801-6.516 17.756-8.796 1.955-2.281 1.629 3.095-1.14 5.05-2.769 1.955-3.747 2.281-3.747 2.281s2.932-.163 3.747.489c.814.652.208 2.769 2.384 5.538 2.176 2.769-1.733 9.448-1.733 10.751 0 0-2.281-.652-1.303-3.421 0 0-.618 8.899-3.974 11.291-3.356 2.392-13.293-4.287-13.293-4.287l-2.624-4.904"/><path fill="url(#n)" d="M19.932 53.567s-7.044-13.9-15.224-3.999-3.115 11.818 9.048 24.849c12.163 13.032 24.326 6.081 18.75 0-5.576-6.081-12.574-20.85-12.574-20.85Z" transform="translate(284 521)"/><path fill="url(#o)" d="M68.49 26.635c-4.778-4.561-7.167-16.724-7.167-16.724L47.557.362c-6.381 7.392-5.565 12.372-3.61 13.458 1.955 1.086 3.909 2.606 11.077 10.643s18.244 6.733 13.466 2.172Z" transform="translate(284 521)"/><path fill="#2A2E6C" d="M377.337 471.445c-8.12 16.9-31.58 61.3-31.58 61.3l-14.99-9.46.81-1.99v-.01c4-9.84 21.18-52.93 19.12-60.37-.97-3.49-10.51-7.11-21.67-12.54-1.01-.49-2.04-1-3.07-1.53-.07-.03-.13-.07-.2-.1 5.58 11.28 11.79 26.96 10.41 38.72-2.43 20.58-29.51 94.56-29.51 94.56l-17.95-9.46s3.29-25.8 7.92-47.28c4.63-21.47 0-24.15 0-24.15-27.1-45.03-44.7-79.86-44.7-79.86l39.34-14.16c-.9-27.59 29.04-16.03 29.04-16.03s19.2 23.7 39.78 39.65c20.59 15.941 25.37 25.821 17.25 42.71Z"/><path fill="#222357" d="M358.567 460.976c-.85 10.47-26.2 58.84-26.99 60.35-.01-.01-.01-.02 0-.03v-.01c4-9.84 21.18-52.93 19.12-60.37-.97-3.49-10.51-7.11-21.67-12.54-1.01-.49-2.04-1-3.07-1.53-8.89-11.26-19.08-24.75-19.08-24.75 28.89.87 52.56 28.24 51.69 38.88Z"/><path fill="#FCDFD8" d="M314.272 238.765s-17.81-4.34-24.37 21.29c-1.57 6.133-2.605 11.06-3.279 15.024-.25.02-.462.431-.588 1.479-.55 4.561-2.383 14.769-2.383 14.769l5.092-.709v-.003l12.069.71s-.17-2.11.23-4.54c.24-1.47.69-3.05 1.51-4.36 1.69-2.71 3.25-2.39 6.52-4.26.93-.54 2-1.25 3.25-2.26 5.649-4.56 1.949-37.14 1.949-37.14Z"/><path fill="#3B7EBD" d="M404.352 251.325c-1.08 6.61-8.68 46.84-36.44 65.65-12.85 8.7-22.84 10.16-30.46 10.91-5.47.54-9.64.41-12.2.2-.58-.05-1.13.08-1.6.35-.84.46-1.42 1.34-1.45 2.37l-.05 1.62-1.83 56.36c-.01.21-.04.41-.09.61-.5 1.89-3.61 12.15-14.73 20.35-9.71 7.16-25.53 12.76-51.05 9.84a2.834 2.834 0 0 1-2.52-2.81s-3.79-23.15 4.35-64.96c4.14-21.24 9.73-54.73 18.9-60.49 9.17-5.75 25.74-2.69 25.74-2.69 60.69 3.36 59.79 8.63 71.55-11.2 9.59-16.16 14.25-30.04 15.64-34.62a2.813 2.813 0 0 1 2.4-1.99c2.45-.24 6.86.13 10.8 4.66.96 1.1 1.9 2.45 2.77 4.1.28.53.37 1.15.27 1.74Z"/><path fill="#2A2E6C" d="M320.466 237.137s-3.909 7.167-11.729 10.425c-7.819 3.258-8.263 11.077-8.263 11.077s-1.511-4.561-3.792-3.584c-2.281.977-1.539 13.683 3.792 13.032 0 0-5.746 6.842-6.724 9.774-.978 2.932-6.842 2.281-10.099 1.303-3.258-.977-18.617-13.585-17.64-28.245.977-14.661 10.798-22.252 25.133-24.859 14.335-2.606 13.683-4.235 14.661-6.842.977-2.606 6.842.977 6.842 3.91 0 0 0-5.864-2.932-7.819-2.932-1.954 18.57 2.932 10.751 21.828Z"/><path fill="#EBBEB8" d="M309.072 278.165c-3.27 1.87-4.83 1.55-6.52 4.26-.82 1.31-1.27 2.89-1.51 4.36-1.21-1.83-2.24-9.92.04-8.84 1.98.94 5.52.61 7.99.22Z"/><path fill="#2F5F96" d="m404.082 249.585-.026-.049c-.918-1.732-3.5-1.422-4.043.462l-4.291 14.908c-5.59 19.42-23.24 41.19-55.82 48.14-22.241 4.744-31.219 3.011-34.677 1.433a2.19 2.19 0 0 0-2.999 1.339c-1.953 6.155-6.142 22.687-5.973 50.877.137 24.297 4.754 35.935 7.857 41.027a2.203 2.203 0 0 0 3.277.553c9.593-7.911 12.375-17.102 12.845-18.88.05-.2.08-.4.09-.61l1.827-56.36h.003l.05-1.62c.03-1.03.61-1.91 1.45-2.37.47-.27 1.02-.4 1.6-.35 2.56.21 6.73.34 12.2-.2 7.62-.75 17.61-2.21 30.46-10.91 27.76-18.81 35.36-59.04 36.44-65.65.1-.59.01-1.21-.27-1.74Z"/><path fill="url(#p)" d="M40.66 28.426s1.303 16.127 4.887 20.851c3.584 4.724 4.561 8.959 1.303 8.633-3.258-.326-13.683-6.027-17.267-13.683-3.584-7.656-10.588-12.217-9.937-15.801.652-3.584 1.14-10.099 11.403-11.403 10.262-1.303 9.611 11.403 9.611 11.403" transform="translate(617 729)"/><path fill="url(#q)" d="M20.461 7.901s.94 11.403 5.927 19.222c4.987 7.819 7.25 13.781-.804 10.8-8.055-2.981-12.29-13.732-17.665-16.664-5.376-2.932-8.145-5.05-7.005-9.448C2.054 7.413 5.638 1.712 6.941.734c1.303-.978 13.52 7.167 13.52 7.167" transform="translate(617 729)"/><path fill="#FCDFD8" d="M770.347 524.593s6.118-6.298 2.643-13.465c0 0-3.584-5.321-7.819-4.778-4.235.543-8.796 4.344-8.796 4.344l13.972 13.899"/><path fill="url(#r)" stroke="#73A9D3" stroke-width="3" d="m148.397 233.767-92.576-17.422a11.229 11.229 0 0 1-9.152-11.035V60.357c0-7.034 6.393-12.336 13.306-11.035l92.576 17.422a11.229 11.229 0 0 1 9.152 11.035v144.953c-.001 7.034-6.394 12.336-13.306 11.035Z" transform="translate(602 378)"/><path fill="#222357" d="M617.913 596.37s.326 15.427 13.357 39.21c13.032 23.783-8.796 95.783-8.796 95.783s6.19 4.561 14.986 5.538c0 0 24.109-51.475 28.995-76.235 4.886-24.76.977-29.973 0-35.185-.977-5.212-48.542-29.111-48.542-29.111Z"/><path fill="#2A2E6C" d="M689.888 584.909s31.322 57.594 30.324 69.567c-2.281 27.366-40.398 72.326-48.869 84.054-8.471 11.728-13.683 18.896-13.683 18.896l-13.683-10.425s26.063-53.43 30.624-65.158c4.561-11.728 5.213-33.231-7.167-46.914-12.38-13.683-52.261-22.701-49.194-41.701 3.066-19.001 71.648-8.319 71.648-8.319Z"/><path fill="#FCDFD8" d="M672.862 460.525c-2.37 3.48-5.16 4.19-7.64 5.21-.23.09-.45.19-.67.29-1.58.73-3.01 1.72-4.07 3.84-.7 1.4-1.22 2.57-1.62 3.54-1.2 2.95-1.2 4.06-1.2 4.06h-12.16s.16-.59.4-1.58c-2.71.22-6.03-1.08-6.03-1.08v-12.06l7.1-1.73c-.25-1.86-.71-3.67-1.47-5.27-3.91-8.26-10.43-27.59 0-38.66 10.42-11.08 29.97-5.87 28.45 9.55 0 0 3.04 27.8-1.09 33.89Z"/><path fill="#2A2E6C" d="M663.958 434.893s-1.955-3.475-4.127-3.475c-2.172 0-.869 14.986 2.063 14.118 0 0-1.195 9.122-7.71 9.774-6.516.652 0 15.638-19.547 9.122s-1.955-21.285-12.38-27.366c-10.425-6.081-19.982-22.254-5.647-25.896 14.335-3.642 25.664-9.506 23.257-17.108-2.406-7.602 8.888-22.805 24.091-11.511 15.204 11.294 13.9 12.814 20.851 9.122 6.95-3.692 17.376 11.946 7.602 25.195-9.774 13.249-24.977 15.855-25.629 20.199l-.652 4.344-2.172-6.518Z"/><path fill="#EBBEB8" d="M665.222 465.735c-.23.09-.45.19-.67.29-1.58.73-3.01 1.72-4.07 3.84-.7 1.4-1.22 2.57-1.62 3.54-.61-.56-1.39-2.68-1.96-9.19 0 0 3.4 1.96 8.32 1.52Z"/><path fill="#BC89AC" d="M765.242 530.145c-14.11 10.76-77.28-11.2-77.28-11.2l.02.18 7.8 77.33s-10.51 8.91-26.61 12.25c-11.78 2.45-26.55 1.93-42.39-7.21l-8.87-5.13s-6.54-21.06-7.5-57.22c-.97-36.16-5.24-48.89 7.5-60.58 0 0 20.79-15.69 59.91 1.11 39.13 16.79 47.8 25.38 72.69 29.26l14.33 2.52s14.5 7.92.4 18.69Z"/><path fill="#9F7193" d="M669.172 608.705c.1-10.41-.07-53.1-8.11-74.55-9.2-24.55 2.25-41.27 7.67-32.37 3.69 6.06 13.41 13.31 19.25 17.34l7.8 77.33s-10.51 8.91-26.61 12.25ZM610.928 488.688s-7.566 13.061-8.001 26.764c-.435 13.703 8.001 34.852 8.001 34.852s-1.496-32.117 0-61.616Z"/><path fill="#CCE8F8" d="m620.204 169.907-96.902-15.737V84.074l96.902 15.737z"/><path fill="#EBBEB8" d="M621.492 54.877c-.21.44-3.53 7.56-5.46 9.07v-3.63s-.14.15-.41.39c.34-.42.75-.82 1.19-1.16 0 0 3.51-3.11 4.68-4.67Z"/><path fill="url(#s)" d="M231.12 92.647c0 39.05-40.19 70.357-89.766 77.965-49.576 7.608-127.689-43.441-127.689-92.901 0-49.46 81.452 10.442 131.029 2.834 49.577-7.609 86.426-37.358 86.426 12.102Z" transform="translate(505)"/><path fill="#2A2E6C" d="M639.382 66.565c-6.08 8.1-17.72 18.23-31.3 28.59-25.2 19.24-57.07 39.29-72.39 48.69-5.64 3.46-9.04 5.47-9.04 5.47s-26.38-10.64-20.85-34.97c5.54-24.32 69.07-30.84 81.13-74.49 0 0 0-6.19-7.82-10.1-7.82-3.91-5.87-33.56 16.61-28.67 22.48 4.88 32.91 11.72 32.91 11.72s9.12-1.95 13.03 6.52c3.91 8.47 19.22 18.57-2.28 47.24Z"/><path fill="#FFF" d="M603.741 69.681c.38-.207 5.538-1.792 5.538-1.792 4.781-.454 29.085-5.135 52.797 8.016 25.846 14.335 26.932 68.416 27.366 76.452.434 8.036-26.68 4.739-38.843 8.471-34.162 10.48-22.901-3.177-28.324-.851-1.221.524-5.122 10.836-6.031 9.866l-23.315-24.895a3.196 3.196 0 0 0-.391-.353l-29.602-22.555c-2.559-1.95-.901-6.03 2.292-5.643a3.148 3.148 0 0 0 3.431-2.33c2.232-8.61 12.204-31.917 35.082-44.386Z"/><path fill="#FCDFD8" d="M627.322 44.195s4.63 6.95 4.63 10.86v12.6s-2.89 4.77-12.16 6.08c-9.27 1.3-3.76-6.52-3.76-6.52v-6.982s-.564.52-.833.76c-1.45 1.3-7.121 4.97-13.706.572-7.198-4.808-8.65-26.47-8.73-32.2 3.32.85 7.45 1 12.41-.37l15.64-4.35s6.22 2.6 4.65 10.8c.15-.58 1.45-5.23 5.12-6.45 3.91-1.31 4.56 3.91 2.17 9.12-2.391 5.21-5.431 6.08-5.431 6.08Z"/><path fill="#A5D9F5" d="M634.151 150.62s15.905-7.646 26.115-10.242c12.815-3.258 8.471-5.213 8.471-5.213s-10.643-27.366-4.995-44.959c0 0-4.995 7.602-5.43 21.719-.435 14.117.494 20.199-7.711 27.584-8.205 7.385-23.616 9.19-27.006 11.111l-3.39 1.921v5.004l13.946-6.925M595.271 100.142s-.163-13.241 1.303-16.068c0 0-7.005 8.412-7.33 12.648-.325 4.236 6.027 3.42 6.027 3.42Z"/><path fill="#FCDFD8" d="M634.151 150.62s4.511 10.54 0 14.419c-4.511 3.879-9.483 2.196-10.489 3.934 0 0-1.332-.977 1.275-2.606 2.606-1.629 1.303-1.086 1.303-1.086s-3.366.326-4.561 2.063c-1.195 1.737-3.149 2.498-3.041 1.629.109-.869 1.52-3.258 3.584-4.67 0 0-1.312.109-3.588 1.52-2.276 1.412-7.631-7.493 15.517-15.203Z"/><path fill="#2A2E6C" d="M625.566 24.645s-.903 6.185-4.074 9.361c-3.171 3.176-11.316 4.072-9.036.896 0 0-5.62 3.828-8.226 3.747-2.606-.081.57-3.747.57-3.747s-4.235 4.154-7.493 4.398c-3.258.244 0-4.561 0-4.561s-3.339 3.584-5.376 3.584c-2.037 0 0-11.077 0-11.077s32.823-7.738 35.023-5.131c2.199 2.607-1.388 2.53-1.388 2.53ZM627.322 44.195s.691 6.101-.857 9.766-2.851 4.968-2.851 4.968-.489 2.525 3.339.57 3.991-3.095 3.991-3.095-.815 8.072-4.724 10.308c-3.909 2.236 6.434 3.457 10.833-1.186 4.399-4.642-6.187-21.567-9.731-21.331Z"/><path fill="url(#t)" d="M.802 69.745V.662l95.902 15.574v69.083z" transform="translate(523 84)"/><path fill="#3B7EBD" d="m524.302 85.249 94.902 15.412v68.07l-94.902-15.412v-68.07m-1-1.175v70.096l96.902 15.737V99.811l-96.902-15.737Z"/><path fill="#FFF" d="m567.325 127.484 5.342 4.633a7.073 7.073 0 0 1-5.342 2.438c-3.879 0-7.071-3.192-7.071-7.071 0-3.879 3.192-7.071 7.071-7.071 3.879 0 7.071 3.192 7.071 7.071h-7.071Z"/><path fill="#FFF" d="M310.758 734.544V557.29c0-10.326 5.7-19.793 14.877-24.708l215.37-115.347V402.92c-.574.276-1.149.549-1.713.851L318.627 521.954c-13.316 7.131-21.587 20.671-21.587 35.336v180.33c0 1.576.116 3.132.3 4.672l13.418-7.748ZM663.142 809.09V631.836c0-10.326 5.7-19.793 14.877-24.708l215.37-115.347v-14.316c-.574.276-1.149.549-1.713.851L671.011 596.499c-13.316 7.131-21.587 20.671-21.587 35.336v180.33c0 1.576.116 3.132.3 4.672l13.418-7.747Z" opacity=".68"/><path fill="#E1F3FC" d="M953.108 375.092 743.172 495.98c-7.957 4.582-17.891-1.161-17.891-10.343v-64.982c0-4.269 2.28-8.213 5.979-10.343l209.936-120.888c7.957-4.582 17.891 1.161 17.891 10.343v64.982a11.931 11.931 0 0 1-5.979 10.343ZM903.35 634.928 693.414 755.816c-7.957 4.582-17.891-1.161-17.891-10.343v-64.982c0-4.269 2.28-8.213 5.979-10.343L891.438 549.26c7.957-4.582 17.891 1.161 17.891 10.343v64.982c0 4.269-2.28 8.213-5.979 10.343Z" opacity=".46"/></g></svg>